<?xml version="1.0" encoding="UTF-8" standalone="no"?>
<!-- Generator: Adobe Illustrator 13.0.2, SVG Export Plug-In . SVG Version: 6.00 Build 14948)  -->

<svg
   xmlns:dc="http://purl.org/dc/elements/1.1/"
   xmlns:cc="http://creativecommons.org/ns#"
   xmlns:rdf="http://www.w3.org/1999/02/22-rdf-syntax-ns#"
   xmlns:svg="http://www.w3.org/2000/svg"
   xmlns="http://www.w3.org/2000/svg"
   xmlns:xlink="http://www.w3.org/1999/xlink"
   xmlns:sodipodi="http://sodipodi.sourceforge.net/DTD/sodipodi-0.dtd"
   xmlns:inkscape="http://www.inkscape.org/namespaces/inkscape"
   version="1.0"
   id="Layer_1"
   x="0px"
   y="0px"
   width="120"
   height="120"
   viewBox="0 0 120 120"
   enable-background="new 0 0 180 180"
   xml:space="preserve"
   inkscape:version="0.48.4 r9939"
   sodipodi:docname="shotwell.svg"><metadata
     id="metadata9"><rdf:RDF><cc:Work
         rdf:about=""><dc:format>image/svg+xml</dc:format><dc:type
           rdf:resource="http://purl.org/dc/dcmitype/StillImage" /><dc:title></dc:title></cc:Work></rdf:RDF></metadata><defs
     id="defs7"><linearGradient
       id="linearGradient3710"><stop
         style="stop-color:#c9332e;stop-opacity:1;"
         offset="0"
         id="stop3712" /><stop
         style="stop-color:#87231f;stop-opacity:1;"
         offset="1"
         id="stop3714" /></linearGradient><linearGradient
       id="linearGradient3665"><stop
         style="stop-color:#667f2e;stop-opacity:1;"
         offset="0"
         id="stop3667" /><stop
         style="stop-color:#94b641;stop-opacity:1;"
         offset="1"
         id="stop3669" /></linearGradient><linearGradient
       id="linearGradient3628"><stop
         style="stop-color:#099bd1;stop-opacity:1;"
         offset="0"
         id="stop3630" /><stop
         style="stop-color:#035fa9;stop-opacity:1;"
         offset="1"
         id="stop3632" /></linearGradient><linearGradient
       id="linearGradient3607"><stop
         style="stop-color:#fffbf7;stop-opacity:1;"
         offset="0"
         id="stop3609" /><stop
         style="stop-color:#fed697;stop-opacity:1;"
         offset="1"
         id="stop3611" /></linearGradient><radialGradient
       inkscape:collect="always"
       xlink:href="#linearGradient3607-6"
       id="radialGradient2920-2"
       gradientUnits="userSpaceOnUse"
       gradientTransform="matrix(0.82352939,-6.1355775e-8,5.2590677e-8,0.7058825,-29.1752,17.22328)"
       cx="-165.3261"
       cy="58.559208"
       fx="-165.3261"
       fy="58.559208"
       r="8.9683418" /><linearGradient
       id="linearGradient3607-6"><stop
         style="stop-color:#fffbf7;stop-opacity:1;"
         offset="0"
         id="stop3609-7" /><stop
         style="stop-color:#fed697;stop-opacity:1;"
         offset="1"
         id="stop3611-9" /></linearGradient><radialGradient
       r="8.9683418"
       fy="58.559208"
       fx="-165.3261"
       cy="58.559208"
       cx="-165.3261"
       gradientTransform="matrix(0.82352939,-6.1355775e-8,5.2590677e-8,0.7058825,-29.1752,17.22328)"
       gradientUnits="userSpaceOnUse"
       id="radialGradient3059-8"
       xlink:href="#linearGradient3607-6-5"
       inkscape:collect="always" /><linearGradient
       id="linearGradient3607-6-5"><stop
         style="stop-color:#fffbf7;stop-opacity:1;"
         offset="0"
         id="stop3609-7-6" /><stop
         style="stop-color:#fed697;stop-opacity:1;"
         offset="1"
         id="stop3611-9-1" /></linearGradient><linearGradient
       inkscape:collect="always"
       xlink:href="#linearGradient3710-8"
       id="linearGradient2906-4"
       gradientUnits="userSpaceOnUse"
       gradientTransform="matrix(0.97983755,0,0,0.97983755,183.24121,-57.786345)"
       x1="-124.5"
       y1="101.26834"
       x2="-124.5"
       y2="73.998131" /><linearGradient
       id="linearGradient3710-8"><stop
         style="stop-color:#c9332e;stop-opacity:1;"
         offset="0"
         id="stop3712-0" /><stop
         style="stop-color:#87231f;stop-opacity:1;"
         offset="1"
         id="stop3714-3" /></linearGradient><filter
       color-interpolation-filters="sRGB"
       inkscape:collect="always"
       id="filter3706-6"><feGaussianBlur
         inkscape:collect="always"
         stdDeviation="1.5975"
         id="feGaussianBlur3708-5" /></filter><linearGradient
       x1="61.294735"
       y1="121.32806"
       x2="104.6299"
       y2="41.346642"
       id="linearGradient3595"
       xlink:href="#linearGradient3951"
       gradientUnits="userSpaceOnUse" /><linearGradient
       id="linearGradient3951"><stop
         id="stop3953"
         style="stop-color:#000000;stop-opacity:1"
         offset="0" /><stop
         id="stop3955"
         style="stop-color:#000000;stop-opacity:0"
         offset="1" /></linearGradient><filter
       color-interpolation-filters="sRGB"
       id="filter3963"><feGaussianBlur
         stdDeviation="0.91605611"
         id="feGaussianBlur3965" /></filter><linearGradient
       x1="136.41356"
       y1="115.49392"
       x2="149.52968"
       y2="115.49392"
       id="linearGradient3522"
       xlink:href="#linearGradient3485"
       gradientUnits="userSpaceOnUse" /><linearGradient
       id="linearGradient3485"><stop
         id="stop3487"
         style="stop-color:#e6605b;stop-opacity:1"
         offset="0" /><stop
         id="stop3489"
         style="stop-color:#f08682;stop-opacity:1"
         offset="1" /></linearGradient><filter
       x="-0.42857143"
       y="-0.16666667"
       width="1.8571428"
       height="1.3333333"
       color-interpolation-filters="sRGB"
       id="filter3495"><feGaussianBlur
         stdDeviation="0.55242721"
         id="feGaussianBlur3497" /></filter><filter
       x="-0.18344349"
       y="-0.17668343"
       width="1.366887"
       height="1.3533669"
       color-interpolation-filters="sRGB"
       id="filter3509"><feGaussianBlur
         stdDeviation="0.65925"
         id="feGaussianBlur3511" /></filter><linearGradient
       x1="137.40625"
       y1="116.46875"
       x2="148.53125"
       y2="116.46875"
       id="linearGradient3524"
       xlink:href="#linearGradient3339"
       gradientUnits="userSpaceOnUse"
       gradientTransform="matrix(1.0893815,0,0,1,-13.275943,0)" /><linearGradient
       id="linearGradient3339"><stop
         id="stop3341"
         style="stop-color:#000000;stop-opacity:1"
         offset="0" /><stop
         id="stop3347"
         style="stop-color:#000000;stop-opacity:0.49803922"
         offset="0.69999999" /><stop
         id="stop3343"
         style="stop-color:#000000;stop-opacity:0"
         offset="1" /></linearGradient><linearGradient
       x1="136"
       y1="60"
       x2="150"
       y2="60"
       id="linearGradient3526"
       xlink:href="#linearGradient3278"
       gradientUnits="userSpaceOnUse"
       gradientTransform="translate(-23.73343,0)" /><linearGradient
       id="linearGradient3278"><stop
         id="stop3280"
         style="stop-color:#000000;stop-opacity:1"
         offset="0" /><stop
         id="stop3290"
         style="stop-color:#282828;stop-opacity:1"
         offset="0.25" /><stop
         id="stop3286"
         style="stop-color:#3c3c3c;stop-opacity:1"
         offset="0.30000001" /><stop
         id="stop3288"
         style="stop-color:#646464;stop-opacity:1"
         offset="0.69999999" /><stop
         id="stop3292"
         style="stop-color:#787878;stop-opacity:1"
         offset="0.75" /><stop
         id="stop3282"
         style="stop-color:#a0a0a0;stop-opacity:1"
         offset="1" /></linearGradient><linearGradient
       x1="143"
       y1="2.4000001e-06"
       x2="143"
       y2="120.01752"
       id="linearGradient3528"
       xlink:href="#linearGradient3254"
       gradientUnits="userSpaceOnUse"
       gradientTransform="translate(-23.73343,0)" /><linearGradient
       id="linearGradient3254"><stop
         id="stop3256"
         style="stop-color:#000000;stop-opacity:1"
         offset="0" /><stop
         id="stop3266"
         style="stop-color:#000000;stop-opacity:1"
         offset="0.06588447" /><stop
         id="stop3264"
         style="stop-color:#ad5f1b;stop-opacity:1"
         offset="0.07" /><stop
         id="stop3268"
         style="stop-color:#ad601a;stop-opacity:1"
         offset="0.1913653" /><stop
         id="stop3262"
         style="stop-color:#000000;stop-opacity:1"
         offset="0.20983393" /><stop
         id="stop3258"
         style="stop-color:#000000;stop-opacity:1"
         offset="1" /></linearGradient><linearGradient
       x1="141.25002"
       y1="4.9218717"
       x2="144.81252"
       y2="4.9218717"
       id="linearGradient3530"
       xlink:href="#linearGradient3394"
       gradientUnits="userSpaceOnUse"
       gradientTransform="translate(-23.73343,0)" /><linearGradient
       id="linearGradient3394"><stop
         id="stop3396"
         style="stop-color:#000000;stop-opacity:1"
         offset="0" /><stop
         id="stop3402"
         style="stop-color:#7d7d7d;stop-opacity:1"
         offset="0.5" /><stop
         id="stop3398"
         style="stop-color:#000000;stop-opacity:1"
         offset="1" /></linearGradient><linearGradient
       x1="136.98804"
       y1="17.043356"
       x2="148.99513"
       y2="17.043356"
       id="linearGradient3532"
       xlink:href="#linearGradient3308"
       gradientUnits="userSpaceOnUse"
       gradientTransform="translate(-23.73343,0)" /><linearGradient
       id="linearGradient3308"><stop
         id="stop3310"
         style="stop-color:#da8539;stop-opacity:1"
         offset="0" /><stop
         id="stop3312"
         style="stop-color:#fadfc7;stop-opacity:1"
         offset="1" /></linearGradient><linearGradient
       x1="146.10596"
       y1="118.94019"
       x2="146.07562"
       y2="66"
       id="linearGradient3534"
       xlink:href="#linearGradient5452"
       gradientUnits="userSpaceOnUse"
       gradientTransform="matrix(1,0,0,1.2653524,-23.73343,-54.364173)" /><linearGradient
       id="linearGradient5452"><stop
         id="stop5454"
         style="stop-color:#ffffff;stop-opacity:1"
         offset="0" /><stop
         id="stop5456"
         style="stop-color:#ffffff;stop-opacity:0"
         offset="1" /></linearGradient><linearGradient
       x1="146.10596"
       y1="118.94019"
       x2="146.07562"
       y2="66"
       id="linearGradient3536"
       xlink:href="#linearGradient5452"
       gradientUnits="userSpaceOnUse"
       gradientTransform="matrix(1,0,0,1.2653524,-29.85843,-54.364173)" /><linearGradient
       id="linearGradient3179"><stop
         id="stop3181"
         style="stop-color:#ffffff;stop-opacity:1"
         offset="0" /><stop
         id="stop3183"
         style="stop-color:#ffffff;stop-opacity:0"
         offset="1" /></linearGradient><filter
       x="-0.43161276"
       y="-0.11371106"
       width="1.8632255"
       height="1.2274221"
       color-interpolation-filters="sRGB"
       id="filter3382"><feGaussianBlur
         stdDeviation="0.73914765"
         id="feGaussianBlur3384" /></filter><filter
       x="-0.60979599"
       y="-0.1494"
       width="2.2195919"
       height="1.2988"
       color-interpolation-filters="sRGB"
       id="filter3390"><feGaussianBlur
         stdDeviation="0.77812506"
         id="feGaussianBlur3392" /></filter><linearGradient
       x1="136"
       y1="106"
       x2="150"
       y2="106"
       id="linearGradient3538"
       xlink:href="#linearGradient3401"
       gradientUnits="userSpaceOnUse" /><linearGradient
       id="linearGradient3401"><stop
         id="stop3403"
         style="stop-color:#404040;stop-opacity:1"
         offset="0" /><stop
         id="stop3447"
         style="stop-color:#808080;stop-opacity:1"
         offset="0.2" /><stop
         id="stop3410"
         style="stop-color:#efefef;stop-opacity:1"
         offset="0.69999999" /><stop
         id="stop3405"
         style="stop-color:#dcdcdc;stop-opacity:1"
         offset="1" /></linearGradient><linearGradient
       x1="136"
       y1="106"
       x2="150"
       y2="106"
       id="linearGradient3540"
       xlink:href="#linearGradient3461"
       gradientUnits="userSpaceOnUse" /><linearGradient
       id="linearGradient3461"><stop
         id="stop3463"
         style="stop-color:#444542;stop-opacity:1"
         offset="0" /><stop
         id="stop3465"
         style="stop-color:#71746e;stop-opacity:1"
         offset="1" /></linearGradient><linearGradient
       x1="142.95775"
       y1="98.950562"
       x2="148.95775"
       y2="98.950562"
       id="linearGradient3542"
       xlink:href="#linearGradient3339"
       gradientUnits="userSpaceOnUse"
       gradientTransform="translate(0.04225159,1.5494389)"
       spreadMethod="reflect" /><linearGradient
       id="linearGradient3200"><stop
         id="stop3202"
         style="stop-color:#000000;stop-opacity:1"
         offset="0" /><stop
         id="stop3204"
         style="stop-color:#000000;stop-opacity:0.49803922"
         offset="0.69999999" /><stop
         id="stop3206"
         style="stop-color:#000000;stop-opacity:0"
         offset="1" /></linearGradient><linearGradient
       x1="142.95775"
       y1="98.950562"
       x2="148.95775"
       y2="98.950562"
       id="linearGradient3544"
       xlink:href="#linearGradient3355"
       gradientUnits="userSpaceOnUse"
       gradientTransform="translate(0.04225159,2.5494389)"
       spreadMethod="reflect" /><linearGradient
       id="linearGradient3355"><stop
         id="stop3357"
         style="stop-color:#ffffff;stop-opacity:1"
         offset="0" /><stop
         id="stop3359"
         style="stop-color:#ffffff;stop-opacity:0.49803922"
         offset="0.69999999" /><stop
         id="stop3361"
         style="stop-color:#ffffff;stop-opacity:0"
         offset="1" /></linearGradient><linearGradient
       x1="142.95775"
       y1="98.950562"
       x2="148.95775"
       y2="98.950562"
       id="linearGradient3546"
       xlink:href="#linearGradient3339"
       gradientUnits="userSpaceOnUse"
       gradientTransform="translate(0.04225159,3.5494389)"
       spreadMethod="reflect" /><linearGradient
       id="linearGradient3214"><stop
         id="stop3216"
         style="stop-color:#000000;stop-opacity:1"
         offset="0" /><stop
         id="stop3218"
         style="stop-color:#000000;stop-opacity:0.49803922"
         offset="0.69999999" /><stop
         id="stop3220"
         style="stop-color:#000000;stop-opacity:0"
         offset="1" /></linearGradient><linearGradient
       x1="142.95775"
       y1="98.950562"
       x2="148.95775"
       y2="98.950562"
       id="linearGradient3548"
       xlink:href="#linearGradient3355"
       gradientUnits="userSpaceOnUse"
       gradientTransform="translate(0.04225159,4.5494389)"
       spreadMethod="reflect" /><linearGradient
       id="linearGradient3223"><stop
         id="stop3225"
         style="stop-color:#ffffff;stop-opacity:1"
         offset="0" /><stop
         id="stop3227"
         style="stop-color:#ffffff;stop-opacity:0.49803922"
         offset="0.69999999" /><stop
         id="stop3229"
         style="stop-color:#ffffff;stop-opacity:0"
         offset="1" /></linearGradient><linearGradient
       x1="142.95775"
       y1="98.950562"
       x2="148.95775"
       y2="98.950562"
       id="linearGradient3550"
       xlink:href="#linearGradient3339"
       gradientUnits="userSpaceOnUse"
       gradientTransform="translate(0.04225159,9.5494389)"
       spreadMethod="reflect" /><linearGradient
       id="linearGradient3232"><stop
         id="stop3234"
         style="stop-color:#000000;stop-opacity:1"
         offset="0" /><stop
         id="stop3236"
         style="stop-color:#000000;stop-opacity:0.49803922"
         offset="0.69999999" /><stop
         id="stop3238"
         style="stop-color:#000000;stop-opacity:0"
         offset="1" /></linearGradient><linearGradient
       x1="142.95775"
       y1="98.950562"
       x2="148.95775"
       y2="98.950562"
       id="linearGradient3552"
       xlink:href="#linearGradient3355"
       gradientUnits="userSpaceOnUse"
       gradientTransform="translate(0.04225159,10.549439)"
       spreadMethod="reflect" /><linearGradient
       id="linearGradient3241"><stop
         id="stop3243"
         style="stop-color:#ffffff;stop-opacity:1"
         offset="0" /><stop
         id="stop3245"
         style="stop-color:#ffffff;stop-opacity:0.49803922"
         offset="0.69999999" /><stop
         id="stop3247"
         style="stop-color:#ffffff;stop-opacity:0"
         offset="1" /></linearGradient><linearGradient
       x1="142.95775"
       y1="98.950562"
       x2="148.95775"
       y2="98.950562"
       id="linearGradient3554"
       xlink:href="#linearGradient3339"
       gradientUnits="userSpaceOnUse"
       gradientTransform="translate(0.04225159,11.549439)"
       spreadMethod="reflect" /><linearGradient
       id="linearGradient3250"><stop
         id="stop3252"
         style="stop-color:#000000;stop-opacity:1"
         offset="0" /><stop
         id="stop3254"
         style="stop-color:#000000;stop-opacity:0.49803922"
         offset="0.69999999" /><stop
         id="stop3257"
         style="stop-color:#000000;stop-opacity:0"
         offset="1" /></linearGradient><linearGradient
       x1="142.95775"
       y1="98.950562"
       x2="148.95775"
       y2="98.950562"
       id="linearGradient3556"
       xlink:href="#linearGradient3355"
       gradientUnits="userSpaceOnUse"
       gradientTransform="translate(0.04225159,12.549439)"
       spreadMethod="reflect" /><linearGradient
       id="linearGradient3260"><stop
         id="stop3263"
         style="stop-color:#ffffff;stop-opacity:1"
         offset="0" /><stop
         id="stop3265"
         style="stop-color:#ffffff;stop-opacity:0.49803922"
         offset="0.69999999" /><stop
         id="stop3267"
         style="stop-color:#ffffff;stop-opacity:0"
         offset="1" /></linearGradient><linearGradient
       x1="137"
       y1="106"
       x2="139.03125"
       y2="106"
       id="linearGradient3558"
       xlink:href="#linearGradient3439"
       gradientUnits="userSpaceOnUse"
       spreadMethod="repeat" /><linearGradient
       id="linearGradient3439"><stop
         id="stop3441"
         style="stop-color:#3d3d3d;stop-opacity:1"
         offset="0" /><stop
         id="stop3443"
         style="stop-color:#ffffff;stop-opacity:1"
         offset="1" /></linearGradient><filter
       x="-1.0349605"
       y="-0.13573837"
       width="3.069921"
       height="1.2714767"
       color-interpolation-filters="sRGB"
       id="filter3451"><feGaussianBlur
         stdDeviation="0.9498173"
         id="feGaussianBlur3453" /></filter><filter
       x="-0.93333328"
       y="-0.13770492"
       width="2.8666666"
       height="1.2754098"
       color-interpolation-filters="sRGB"
       id="filter3457"><feGaussianBlur
         stdDeviation="0.92807767"
         id="feGaussianBlur3459" /></filter><linearGradient
       id="linearGradient3607-1"><stop
         style="stop-color:#fffbf7;stop-opacity:1;"
         offset="0"
         id="stop3609-73" /><stop
         style="stop-color:#fed697;stop-opacity:1;"
         offset="1"
         id="stop3611-6" /></linearGradient><linearGradient
       id="linearGradient3628-7"><stop
         style="stop-color:#fbf8ae;stop-opacity:1;"
         offset="0"
         id="stop3630-8" /><stop
         style="stop-color:#fcbb42;stop-opacity:1;"
         offset="1"
         id="stop3632-5" /></linearGradient><filter
       color-interpolation-filters="sRGB"
       inkscape:collect="always"
       id="filter3710-9"><feGaussianBlur
         inkscape:collect="always"
         stdDeviation="1.5975"
         id="feGaussianBlur3712-9" /></filter><linearGradient
       inkscape:collect="always"
       xlink:href="#linearGradient3628-7"
       id="linearGradient4328"
       gradientUnits="userSpaceOnUse"
       gradientTransform="matrix(0.68225213,0,0,0.68056286,-168.92953,-63.396048)"
       x1="-43.661713"
       y1="60.388466"
       x2="-43.661713"
       y2="31.618958" /><radialGradient
       inkscape:collect="always"
       xlink:href="#linearGradient3607-1"
       id="radialGradient4330"
       gradientUnits="userSpaceOnUse"
       gradientTransform="matrix(0.82352939,-6.1355775e-8,5.2590677e-8,0.7058825,-29.1752,17.22328)"
       cx="-165.3261"
       cy="58.559208"
       fx="-165.3261"
       fy="58.559208"
       r="8.9683418" /><filter
       color-interpolation-filters="sRGB"
       inkscape:collect="always"
       id="filter3710-9-8"><feGaussianBlur
         inkscape:collect="always"
         stdDeviation="1.5975"
         id="feGaussianBlur3712-9-1" /></filter><linearGradient
       id="linearGradient3628-7-7"><stop
         style="stop-color:#2843f4;stop-opacity:1;"
         offset="0"
         id="stop3630-8-8" /><stop
         style="stop-color:#020d7f;stop-opacity:1;"
         offset="1"
         id="stop3632-5-9" /></linearGradient><linearGradient
       id="linearGradient3607-1-4"><stop
         style="stop-color:#ffb325;stop-opacity:1;"
         offset="0"
         id="stop3609-73-0" /><stop
         style="stop-color:#ff761d;stop-opacity:0.98550725;"
         offset="1"
         id="stop3611-6-8" /></linearGradient><linearGradient
       inkscape:collect="always"
       xlink:href="#linearGradient3628-7-7"
       id="linearGradient4433"
       gradientUnits="userSpaceOnUse"
       gradientTransform="matrix(0.68225213,0,0,0.68056286,-314.7245,-81.316206)"
       x1="-43.661713"
       y1="60.388466"
       x2="-43.661713"
       y2="31.618958" /><radialGradient
       inkscape:collect="always"
       xlink:href="#linearGradient3607-1-4"
       id="radialGradient4435"
       gradientUnits="userSpaceOnUse"
       gradientTransform="matrix(0.82352939,-6.1355775e-8,5.2590677e-8,0.7058825,-29.1752,17.22328)"
       cx="-165.3261"
       cy="58.559208"
       fx="-165.3261"
       fy="58.559208"
       r="8.9683418" /></defs><sodipodi:namedview
     pagecolor="#ffffff"
     bordercolor="#e7e7e7"
     borderopacity="1"
     objecttolerance="10"
     gridtolerance="10"
     guidetolerance="10"
     inkscape:pageopacity="0"
     inkscape:pageshadow="2"
     inkscape:window-width="1920"
     inkscape:window-height="1080"
     id="namedview5"
     showgrid="false"
     inkscape:zoom="2.8284271"
     inkscape:cx="-2.7554469"
     inkscape:cy="70.940691"
     inkscape:window-x="0"
     inkscape:window-y="0"
     inkscape:window-maximized="1"
     inkscape:current-layer="Layer_1"
     showguides="true"
     inkscape:guide-bbox="true"
     inkscape:snap-grids="false"
     inkscape:showpageshadow="false"><inkscape:grid
       type="xygrid"
       id="grid2819"
       empspacing="5"
       visible="true"
       enabled="true"
       snapvisiblegridlinesonly="true" /></sodipodi:namedview><g
     id="g4437"
     transform="matrix(0.84187071,0,0,0.84187071,5.2940763,19.361845)"><g
       transform="translate(270,32)"
       id="g4321"><rect
         ry="0"
         rx="0"
         y="24.381205"
         x="-147.54089"
         height="88"
         width="78"
         id="rect2928-4"
         style="opacity:0.6;fill:#000000;fill-opacity:1;stroke:#000000;stroke-width:0.99999994;stroke-linecap:square;stroke-linejoin:miter;stroke-miterlimit:4;stroke-opacity:1;stroke-dasharray:none;stroke-dashoffset:0;filter:url(#filter3710-9)"
         transform="matrix(1.0256018,0,0,1.0256018,-86.88529,-73.211729)" /><rect
         style="fill:#ffffff;fill-opacity:1;stroke:#888a85;stroke-width:1.02560174;stroke-linecap:square;stroke-linejoin:miter;stroke-miterlimit:4;stroke-opacity:1;stroke-dasharray:none;stroke-dashoffset:0"
         id="rect2817-2"
         width="79.996941"
         height="90.25296"
         x="-238.20349"
         y="-48.206322"
         rx="0"
         ry="0" /><rect
         style="fill:url(#linearGradient4328);fill-opacity:1;stroke:none"
         id="rect3618-4"
         width="67.337517"
         height="66.487709"
         x="-232.38658"
         y="-41.537079" /><path
         sodipodi:type="arc"
         style="fill:url(#radialGradient4330);fill-opacity:1;stroke:none"
         id="path2825-2"
         sodipodi:cx="-165.3261"
         sodipodi:cy="58.559208"
         sodipodi:rx="8.4407921"
         sodipodi:ry="8.4407921"
         d="m -156.8853,58.559208 c 0,4.661721 -3.77907,8.440792 -8.4408,8.440792 -4.66172,0 -8.44079,-3.779071 -8.44079,-8.440792 0,-4.661721 3.77907,-8.440792 8.44079,-8.440792 4.66173,0 8.4408,3.779071 8.4408,8.440792 z"
         transform="matrix(0.60752699,0,0,0.60752699,-108.53378,-58.655377)" /><path
         inkscape:connector-curvature="0"
         style="fill:#01131a;fill-opacity:1;stroke:#01131a;stroke-width:1.02560174px;stroke-linecap:butt;stroke-linejoin:miter;stroke-opacity:1"
         d="m -230.69031,-0.00709 c 0.7149,-0.355868 0.66708,-1.6190015 1.73304,-1.2652591 1.49145,0.4949451 0.85397,0.7926651 1.32866,1.2652591 0.1004,0.09999 1.04883,0.139295 1.21313,0.05752 1.01239,-0.503952 1.12087,-1.7137684 2.25295,-1.1502371 0.60804,0.3026721 0.61407,1.0139321 0.98205,1.3802851 0.44894,0.44695 1.29992,0.172801 1.67527,0.920188 0.32062,0.63838 -0.24811,1.650874 0.28884,2.185449 0.0477,0.04748 1.25688,0.02793 1.2709,0 0.29439,-0.586175 -0.13051,-6.8865072 0.11553,-7.1314661 0.6283,-0.6255032 1.85525,-0.3417459 2.42626,-0.057516 0.66744,0.3322416 1.88066,-1.1182865 3.58161,0.5751185 0.14741,0.1467595 1.23339,0 1.44421,0 1.79954,0 3.23594,0.057823 4.79473,0.5751185 0.10626,0.03526 0.44514,-0.074448 0.51991,0 0.43522,0.4332768 -0.27503,1.7966061 0.28884,2.3579851 0.14009,0.139458 1.21657,0.02933 1.38643,0.05752 0.99997,0.165922 0.32747,-0.7861019 0.75099,-1.2077493 0.0589,-0.058562 0.48041,0 0.57769,0 0.46799,0 2.28805,-0.1950972 2.59955,0.1150233 0.0433,0.043116 -0.10334,0.1936243 -0.11553,0.2300476 -0.12822,0.3829494 -0.20993,3.0221834 0,3.3356864 0.0507,0.07568 1.26489,1.204763 1.27089,1.207747 0.99794,0.496757 0.81096,-2.886562 0.92429,-3.450709 0.45708,-2.275231 -0.55748,-3.3982229 2.19518,-4.0833383 0.4533,-0.1128244 0.68067,-0.6326311 1.09759,-0.6326311 0.24359,0 0.30928,-2.9174536 0.45925,-2.9174536 0.27182,0 0.35678,2.9144496 0.68621,3.0784289 1.42095,0.7073268 1.09617,0.8629691 1.33856,1.104285 0.0856,0.085207 1.33599,0.2446296 1.61751,0.8051661 0.38054,0.7576931 0.1733,5.883934 0.1733,7.188981 l -0.002,0.148232 c 0.0216,0.2649 -0.0204,0.530973 -0.0204,0.793003 0,0.353836 0.91002,0.03609 1.00077,-0.325336 0.0547,-0.217476 0.13754,-0.439219 0.1634,-0.671006 0.0499,-0.44715 -0.0862,-2.110286 0.22467,-2.419686 0.0279,-0.02781 0.0957,0.01588 0.12254,0.02033 0.51802,0.08595 1.02553,0.08133 1.55224,0.08133 0.26522,0 1.73759,0.181457 1.94028,-0.02033 0.14418,-0.143543 -0.0189,-0.82087 -0.0409,-0.996341 -0.10491,-0.835595 -0.0408,-1.717061 -0.0408,-2.5620212 l -0.20422,-0.4066686 c 0.25494,-0.7277762 0.004,-5.9821158 0.49018,-6.4660532 0.36032,-0.3587155 0.53113,-0.3457211 0.73526,-0.4473357 0.80752,-0.4019672 0.61273,-0.7302162 0.61273,-1.5860133 0,-0.630001 0.42856,-7.116724 0.61272,-7.116724 0.15448,0 0.65356,6.410992 0.65356,7.238726 0,0.177318 0.57307,1.4245277 0.65358,1.5046774 0.17392,0.1731473 0.35319,0.3109625 0.49017,0.4473388 0.40054,0.3987571 -0.153,5.1343811 0.24509,5.5307105 0.22329,0.2222951 0.54559,0.6579216 0.85782,0.8133392 0.35781,0.1781122 0.66954,-0.1750507 1.0212,0 0.50329,0.2505309 1.05792,-0.3335575 1.38883,0.3253363 0.59416,1.1830428 -0.0819,2.8461928 0.49018,3.9853658 0.0671,0.133475 0.28543,0.08133 0.40848,0.08133 1.69226,0 0.30637,-3.456692 0.89865,-4.6360382 0.0372,-0.074069 5.01035,-0.054583 5.14689,0.08133 0.72652,0.7233169 -0.0801,3.7429612 0.32677,4.1480342 0.13142,0.130825 1.1645,0 1.38884,0 0.23546,0 0.83502,0.307361 0.98035,0.162666 0.74173,-0.738431 1.77076,-1.547386 2.1241,-2.602687 0.13329,-0.398051 -0.21156,-1.0239707 -0.40847,-1.2200093 -0.26365,-0.262472 0,-2.0810722 0,-2.5213539 0,-3.5189956 -0.6872,-5.8991128 2.61428,-6.9947228 l 0,35.705624 -66.66414,0 0,-24.560983 c 0.42943,-0.01969 1.186,-0.05088 1.35957,-0.05752 z"
         id="path3615-4"
         sodipodi:nodetypes="csssssssssssssssssssssssssssssccssssssssccsssssssssssssssssssssccccc" /></g><g
       transform="translate(427.7996,81.31728)"
       id="g4426"><rect
         ry="0"
         rx="0"
         y="24.381205"
         x="-147.54089"
         height="88"
         width="78"
         id="rect2928-4-1"
         style="opacity:0.6;fill:#000000;fill-opacity:1;stroke:#000000;stroke-width:0.99999994;stroke-linecap:square;stroke-linejoin:miter;stroke-miterlimit:4;stroke-opacity:1;stroke-dasharray:none;stroke-dashoffset:0;filter:url(#filter3710-9-8)"
         transform="matrix(1.0256018,0,0,1.0256018,-232.68026,-91.131887)" /><rect
         style="fill:#ffffff;fill-opacity:1;stroke:#888a85;stroke-width:1.02560174;stroke-linecap:square;stroke-linejoin:miter;stroke-miterlimit:4;stroke-opacity:1;stroke-dasharray:none;stroke-dashoffset:0"
         id="rect2817-2-4"
         width="79.996941"
         height="90.25296"
         x="-383.99847"
         y="-66.12648"
         rx="0"
         ry="0" /><rect
         style="fill:url(#linearGradient4433);fill-opacity:1;stroke:none"
         id="rect3618-4-1"
         width="67.337517"
         height="66.487709"
         x="-378.18155"
         y="-59.457237" /><path
         sodipodi:type="arc"
         style="fill:url(#radialGradient4435);fill-opacity:1;stroke:none"
         id="path2825-2-8"
         sodipodi:cx="-165.3261"
         sodipodi:cy="58.559208"
         sodipodi:rx="8.4407921"
         sodipodi:ry="8.4407921"
         d="m -156.8853,58.559208 c 0,4.661721 -3.77907,8.440792 -8.4408,8.440792 -4.66172,0 -8.44079,-3.779071 -8.44079,-8.440792 0,-4.661721 3.77907,-8.440792 8.44079,-8.440792 4.66173,0 8.4408,3.779071 8.4408,8.440792 z"
         transform="matrix(0.60752699,0,0,0.60752699,-218.2663,-68.090254)" /><path
         inkscape:connector-curvature="0"
         style="fill:#01131a;fill-opacity:1;stroke:#01131a;stroke-width:1.02560174px;stroke-linecap:butt;stroke-linejoin:miter;stroke-opacity:1"
         d="m -376.48528,-17.927248 c 0.7149,-0.355868 0.66708,-1.619002 1.73304,-1.265259 1.49145,0.494945 0.85397,0.792665 1.32866,1.265259 0.1004,0.09999 1.04883,0.139295 1.21313,0.05752 1.01239,-0.503952 1.12087,-1.713768 2.25295,-1.150237 0.60804,0.302672 0.61407,1.013932 0.98205,1.380285 0.44894,0.44695 1.29992,0.172801 1.67527,0.920188 0.32062,0.63838 -0.24811,1.650874 0.28884,2.185449 0.0477,0.04748 1.25688,0.02793 1.2709,0 0.29439,-0.586175 -0.13051,-6.886507 0.11553,-7.131466 0.6283,-0.625503 1.85525,-0.341746 2.42626,-0.05752 0.66744,0.332241 1.88066,-1.118287 3.58161,0.575118 0.14741,0.14676 1.23339,0 1.44421,0 1.79954,0 3.23594,0.05782 4.79473,0.575119 0.10626,0.03526 0.44514,-0.07445 0.51991,0 0.43522,0.433277 -0.27503,1.796606 0.28884,2.357985 0.14009,0.139458 1.21657,0.02933 1.38643,0.05752 0.99997,0.165922 0.32747,-0.786102 0.75099,-1.207749 0.0589,-0.05856 0.48041,0 0.57769,0 0.46799,0 2.28805,-0.195098 2.59955,0.115023 0.0433,0.04312 -0.10334,0.193624 -0.11553,0.230048 -0.12822,0.382949 -0.20993,3.022183 0,3.335686 0.0507,0.07568 1.26489,1.204763 1.27089,1.207747 0.99794,0.496757 0.81096,-2.886562 0.92429,-3.450709 0.45708,-2.275231 -0.55748,-3.398223 2.19518,-4.083338 0.4533,-0.112825 0.68067,-0.632631 1.09759,-0.632631 0.24359,0 0.30928,-2.917454 0.45925,-2.917454 0.27182,0 0.35678,2.91445 0.68621,3.078429 1.42095,0.707327 1.09617,0.862969 1.33856,1.104285 0.0856,0.08521 1.33599,0.244629 1.61751,0.805166 0.38054,0.757693 0.1733,5.883934 0.1733,7.188981 l -0.002,0.148232 c 0.0216,0.2649 -0.0204,0.530973 -0.0204,0.793003 0,0.353836 0.91002,0.03609 1.00077,-0.325336 0.0547,-0.217476 0.13754,-0.439219 0.1634,-0.671006 0.0499,-0.44715 -0.0862,-2.110286 0.22467,-2.419686 0.0279,-0.02781 0.0957,0.01588 0.12254,0.02033 0.51802,0.08595 1.02553,0.08133 1.55224,0.08133 0.26522,0 1.73759,0.181457 1.94028,-0.02033 0.14418,-0.143543 -0.0189,-0.82087 -0.0409,-0.996341 -0.10491,-0.835595 -0.0408,-1.717061 -0.0408,-2.562021 l -0.20422,-0.406669 c 0.25494,-0.727776 0.004,-5.982116 0.49018,-6.466053 0.36032,-0.358715 0.53113,-0.345721 0.73526,-0.447336 0.80752,-0.401967 0.61273,-0.730216 0.61273,-1.586013 0,-0.630001 0.42856,-7.116724 0.61272,-7.116724 0.15448,0 0.65356,6.410992 0.65356,7.238726 0,0.177318 0.57307,1.424528 0.65358,1.504677 0.17392,0.173148 0.35319,0.310963 0.49017,0.447339 0.40054,0.398757 -0.153,5.134381 0.24509,5.530711 0.22329,0.222295 0.54559,0.657921 0.85782,0.813339 0.35781,0.178112 0.66954,-0.175051 1.0212,0 0.50329,0.250531 1.05792,-0.333558 1.38883,0.325336 0.59416,1.183043 -0.0819,2.846193 0.49018,3.985366 0.0671,0.133475 0.28543,0.08133 0.40848,0.08133 1.69226,0 0.30637,-3.456692 0.89865,-4.636038 0.0372,-0.07407 5.01035,-0.05458 5.14689,0.08133 0.72652,0.723317 -0.0801,3.742961 0.32677,4.148034 0.13142,0.130825 1.1645,0 1.38884,0 0.23546,0 0.83502,0.307361 0.98035,0.162666 0.74173,-0.738431 1.77076,-1.547386 2.1241,-2.602687 0.13329,-0.398051 -0.21156,-1.023971 -0.40847,-1.220009 -0.26365,-0.262472 0,-2.081072 0,-2.521354 0,-3.518996 -0.6872,-5.899113 2.61428,-6.994723 l 0,35.705624 -66.66414,0 0,-24.560983 c 0.42943,-0.01969 1.186,-0.05088 1.35957,-0.05752 z"
         id="path3615-4-0"
         sodipodi:nodetypes="csssssssssssssssssssssssssssssccssssssssccsssssssssssssssssssssccccc" /></g><rect
       transform="matrix(1.4790001,0,0,1.4790001,-143.38335,-65.709495)"
       ry="0"
       rx="0"
       y="48.882099"
       x="99.728966"
       height="74"
       width="65"
       id="rect2926"
       style="opacity:0.6;fill:#000000;fill-opacity:1;stroke:#000000;stroke-width:0.99999982;stroke-linecap:square;stroke-linejoin:miter;stroke-miterlimit:4;stroke-opacity:1;stroke-dasharray:none;stroke-dashoffset:0;filter:url(#filter3706-6)" /><rect
       style="fill:#ffffff;fill-opacity:1;stroke:#888a85;stroke-width:1.47899985;stroke-linecap:square;stroke-linejoin:miter;stroke-miterlimit:4;stroke-opacity:1;stroke-dasharray:none;stroke-dashoffset:0"
       id="rect2821"
       width="96.13501"
       height="109.44601"
       x="4.1158018"
       y="6.5871353"
       rx="0"
       ry="0" /><path
       inkscape:connector-curvature="0"
       d="m 9.8006313,107.14124 c 0.6502547,-0.18874 1.3054167,-0.3653 1.9386857,-0.60096 0.17153,-0.0638 0.340151,-0.13429 0.510228,-0.20143 0.607994,-0.26452 1.210216,-0.56732 1.714273,-0.98688 0.283838,-0.23626 0.312179,-0.29601 0.540133,-0.57123 0.363659,-0.52895 0.527495,-1.11055 0.627218,-1.72421 0.02209,-0.17258 0.04215,-0.34632 0.04073,-0.52042 -4.04e-4,-0.0445 0.0092,-0.0508 -0.0053,-0.039 0.469226,0.0102 0.940101,-0.008 1.407683,0.0305 0.0298,0.003 -0.0039,0.0558 -0.0053,0.0837 -0.0024,0.0478 -0.0043,0.0958 -0.0059,0.14365 -0.0082,0.24614 -0.01075,0.49239 -0.0139,0.73861 0.0069,0.66337 0.107012,1.32586 0.3335,1.95615 0.05369,0.14943 0.120063,0.29462 0.180094,0.44193 0.237924,0.53506 0.559169,1.03434 0.966924,1.47139 0.167373,0.17939 0.265298,0.2603 0.443416,0.41919 0.136586,0.10108 0.259562,0.23967 0.425783,0.30274 0.03833,0.0146 0.161996,0.0274 0.120625,0.0273 -1.393153,-0.002 -1.610915,0.08 -1.054636,-0.0807 0.0708,-0.0416 0.145627,-0.0778 0.212415,-0.12483 0.173929,-0.12255 0.338132,-0.28171 0.479683,-0.43441 0.15763,-0.17005 0.356813,-0.41674 0.490235,-0.60182 0.07811,-0.10837 0.148824,-0.22122 0.223238,-0.33183 0.269357,-0.44195 0.486998,-0.91219 0.634345,-1.4022 0.08287,-0.27561 0.09635,-0.37542 0.151617,-0.65148 0.04347,-0.32166 0.102177,-0.64816 0.08687,-0.97387 0.467219,0.0275 0.938725,0.0175 1.401655,0.0826 0.04048,0.005 -0.0012,0.0765 0.0012,0.11472 0.0028,0.0476 0.007,0.0952 0.01422,0.14246 0.03047,0.19967 0.09735,0.38601 0.166416,0.57622 0.16645,0.36167 0.297786,0.74727 0.537688,1.07526 0.04512,0.0617 0.09907,0.11732 0.148609,0.17597 0.05787,0.049 0.110866,0.10354 0.1736,0.14699 0.332994,0.23065 0.756898,0.28065 1.155994,0.31951 0.842409,0.0201 -0.553674,0.0115 -0.828999,-0.0108 -0.09048,-0.007 0.179973,-0.0254 0.267713,-0.0474 0.292021,-0.073 0.527329,-0.20581 0.780988,-0.35279 0.263529,-0.1698 0.503941,-0.36848 0.660456,-0.63292 0.0689,-0.11642 0.08526,-0.17369 0.131356,-0.29477 0.01897,-0.0538 0.0414,-0.13125 0.0748,-0.18229 0.276935,-0.42309 1.345578,-0.0127 1.511373,0.007 0.05127,0.006 0.06217,0.0772 0.09297,0.11596 0.04271,0.0538 0.08504,0.10788 0.12756,0.16182 0.340454,0.45519 0.745065,0.87332 1.219242,1.21083 0.109532,0.078 0.226932,0.14578 0.340398,0.21867 0.485791,0.25894 1.024428,0.41566 1.580755,0.46794 0.133018,0.0125 0.534232,0.0178 0.400548,0.019 -0.317575,0.003 -0.635102,-0.009 -0.952653,-0.014 0.45017,-0.0323 0.88891,-0.13914 1.286595,-0.34125 0.183278,-0.0931 0.295475,-0.1728 0.463894,-0.28309 0.252507,-0.16285 0.469346,-0.36074 0.642715,-0.5964 0.119005,-0.1816 0.153234,-0.18019 0.382665,-0.1847 0.507718,6.7e-4 1.015441,6.7e-4 1.523156,0.003 0.05065,1.6e-4 0.101265,0.002 0.1519,0.003 0.04734,6.7e-4 0.189362,0.002 0.142016,0.002 -2.310012,-5.6e-4 -1.5498,0.0393 -1.100144,-0.0152 0.08208,-0.009 0.125266,-0.0619 0.101349,-0.13612 -0.0061,-0.0103 -0.0099,-0.0222 -0.01844,-0.031 -0.04552,-0.047 -0.187575,-0.0516 -0.250798,-0.058 -0.50351,-0.0308 -0.04091,-0.001 1.271915,0.005 0.01727,8e-5 -0.03451,-0.003 -0.05177,-0.002 -0.0414,0.002 -0.08472,0.0132 -0.124717,0.023 -0.08165,0.0628 -0.07067,0.24494 -0.07409,0.33666 -0.0048,0.19412 0.07961,0.32434 0.225296,0.45407 0.297311,0.2154 0.651336,0.24013 1.012644,0.27742 0.976015,0.0665 1.955805,0.062 2.933856,0.0661 0.447806,0.003 0.895641,-6.7e-4 1.343449,0.002 0.180274,0.001 -0.721112,2e-5 -0.540833,3.7e-4 0.822503,10e-4 1.645024,-2e-5 2.467528,-1.9e-4 1.4865,-0.005 2.972822,-0.0768 4.45209,-0.21249 1.009526,-0.11331 2.012339,-0.27744 3.002343,-0.49362 0.436503,-0.0996 0.868164,-0.21923 1.315144,-0.26966 0.09493,-3.8e-4 1.218426,-0.0551 1.733909,0.0117 0.282755,0.0367 0.559893,0.10437 0.836667,0.16777 0.0592,0.0134 0.11839,0.0268 0.177586,0.0402 0,0 -1.373401,0.17169 -1.373401,0.17169 l 0,0 c -0.05782,-0.0134 -0.115628,-0.0269 -0.173443,-0.0404 -0.210964,-0.0472 -0.421571,-0.0938 -0.636413,-0.12352 -0.48738,-0.0673 -1.433395,-0.0223 0.807565,-0.0375 -0.135754,0.01 -0.198639,0.0119 -0.333285,0.0324 -0.34224,0.0521 -0.67571,0.14653 -1.013851,0.21611 -1.001622,0.21996 -2.016452,0.38577 -3.037383,0.50549 -0.211376,0.0199 -0.422469,0.0427 -0.63413,0.0598 -0.445508,0.036 -0.972689,0.0634 -1.417171,0.0865 -0.810148,0.0419 -1.620868,0.0746 -2.432501,0.0739 -1.950645,10e-4 -3.901292,0.004 -5.851937,0.003 -0.992928,-0.003 -1.988404,0.004 -2.978536,-0.075 -0.391603,-0.0501 -0.760364,-0.0932 -1.053291,-0.3641 -0.147616,-0.16562 -0.233871,-0.33563 -0.230948,-0.55572 0.0046,-0.15017 0.0026,-0.30719 0.07306,-0.44567 0.04716,-0.0607 0.06075,-0.0665 0.134399,-0.0922 0.01866,-0.007 0.03577,-0.0201 0.05569,-0.0203 1.36777,-0.0104 0.977664,-0.0845 1.504271,0.0209 0.145314,0.0409 0.243868,0.096 0.284258,0.24171 0.02056,0.12683 -0.0076,0.24685 -0.116633,0.33308 -0.476556,0.17477 -1.582391,0.0451 -1.663968,0.0452 -0.04681,3e-5 -0.0936,-0.002 -0.140408,-0.002 -0.05079,-6.7e-4 -0.203176,-0.002 -0.152379,-0.002 0.408952,-6.7e-4 0.817909,-3.8e-4 1.226861,-6.7e-4 -0.06341,-0.001 -0.136895,-1.9e-4 -0.201254,-0.008 -0.01513,-0.002 -0.06442,-0.0172 -0.08396,-0.0111 -0.03488,0.011 -0.06104,0.0562 -0.07872,0.0788 -0.181949,0.25061 -0.400244,0.47023 -0.671026,0.64054 -0.149742,0.1 -0.314381,0.21421 -0.472674,0.3012 -0.40035,0.22006 -0.844216,0.34677 -1.305068,0.39494 -0.360927,0.002 -1.501487,0.0561 -2.126032,-0.0222 -0.562783,-0.0706 -1.103617,-0.24575 -1.587274,-0.5242 -0.114089,-0.0768 -0.231872,-0.14895 -0.342267,-0.23029 -0.478327,-0.35241 -0.884779,-0.78112 -1.250075,-1.23419 -0.04567,-0.0512 -0.08877,-0.10439 -0.136997,-0.15344 -0.03088,-0.0314 -0.145367,-0.0836 -0.0999,-0.0875 0.440844,-0.0382 0.885849,10e-4 1.328045,-0.0188 0.02113,-6.8e-4 -0.02558,-0.0422 -0.04663,-0.0402 -0.06232,0.006 -0.0451,0.16239 -0.08625,0.15595 -0.04971,0.12988 -0.06958,0.19467 -0.140251,0.3209 -0.159231,0.28441 -0.398101,0.50562 -0.676989,0.69001 -0.249668,0.15499 -0.496683,0.30743 -0.783432,0.39786 -0.688493,0.21711 -1.442001,0.11023 -2.158129,0.0708 -0.426414,-0.0566 -0.830065,-0.1303 -1.168272,-0.40165 -0.06316,-0.0507 -0.116304,-0.11135 -0.174456,-0.16701 -0.04963,-0.064 -0.103185,-0.12537 -0.148883,-0.19182 -0.234182,-0.3405 -0.372145,-0.7303 -0.540323,-1.10034 -0.091,-0.24869 -0.172937,-0.49356 -0.198214,-0.75664 -0.0038,-0.0399 -0.04957,-0.11423 -0.0071,-0.1202 0.463319,-0.0651 0.935486,-0.0507 1.40323,-0.076 -0.04368,0.33074 -0.05883,0.66515 -0.130856,0.99259 -0.05912,0.28154 -0.07466,0.38444 -0.159616,0.66585 -0.150848,0.49968 -0.369028,0.98056 -0.639363,1.43383 -0.379809,0.57775 -0.791112,1.1608 -1.379436,1.57231 -0.05912,0.0312 -0.109563,0.0901 -0.177357,0.0936 -0.307115,0.0161 -1.182216,0.20358 -1.647755,-0.0607 -0.154384,-0.0876 -0.275345,-0.21888 -0.40751,-0.33101 -0.172329,-0.16689 -0.263689,-0.24919 -0.426191,-0.43558 -0.397595,-0.45606 -0.716314,-0.96609 -0.954334,-1.51056 -0.06079,-0.15052 -0.127567,-0.29906 -0.182372,-0.45159 -0.230924,-0.64265 -0.341324,-1.3156 -0.361596,-1.99202 -0.002,-0.24649 -0.0039,-0.49297 -0.0086,-0.73942 -10e-4,-0.0482 -0.0021,-0.0964 -0.0033,-0.14452 -7.94e-4,-0.0286 -0.03305,-0.0832 -0.0025,-0.0858 0.468107,-0.0415 0.940005,-0.0259 1.410007,-0.0389 -0.0089,0.0446 -0.0089,0.0941 -0.01271,0.13863 -0.01313,0.15206 -0.03139,0.30369 -0.05832,0.45422 -0.118128,0.62376 -0.288764,1.24241 -0.652655,1.78536 -0.231459,0.28937 -0.259737,0.35246 -0.550612,0.60091 -0.506475,0.43261 -1.117558,0.74362 -1.731546,1.01969 -0.456801,0.18631 -0.538179,0.22721 -1.000477,0.38596 -0.45755,0.15713 -0.926488,0.28277 -1.385236,0.43645 0,0 -1.3854887,-0.16462 -1.3854887,-0.16462 z"
       id="path3542"
       style="fill:#000000;fill-opacity:1;stroke-width:2;stroke-miterlimit:4;stroke-dasharray:none" /><rect
       y="14.721635"
       x="13.729311"
       height="78.387009"
       width="78.387009"
       id="rect3700"
       style="fill:url(#linearGradient2906-4);fill-opacity:1;stroke:none" /><path
       sodipodi:nodetypes="csssssssssssssssssssssssssssssccssssssssccsssssssssssssssssssssccccc"
       id="path3615-0"
       d="m 15.929038,63.99167 c 0.827412,-0.411872 0.772053,-1.873786 2.005775,-1.464374 1.726156,0.572834 0.988357,0.917407 1.537746,1.464374 0.11625,0.115732 1.21389,0.161217 1.404045,0.06657 1.171708,-0.583258 1.29726,-1.983466 2.607492,-1.331251 0.703737,0.350306 0.710718,1.173496 1.136611,1.597502 0.519588,0.517288 1.504483,0.199996 1.93891,1.065 0.371066,0.738843 -0.287163,1.910674 0.334298,2.529377 0.05517,0.05495 1.454671,0.03232 1.470896,0 0.340717,-0.678422 -0.151051,-7.970247 0.133701,-8.253757 0.727165,-0.723938 2.147213,-0.395526 2.808074,-0.06657 0.772482,0.384526 2.17663,-1.294275 4.145268,0.665625 0.170602,0.169854 1.427486,0 1.671477,0 2.082725,0 3.745195,0.06692 5.549295,0.665625 0.12291,0.04081 0.51518,-0.08617 0.60172,0 0.5037,0.501461 -0.31831,2.07934 0.3343,2.729065 0.16212,0.161404 1.40802,0.03394 1.60461,0.06657 1.15735,0.192033 0.37901,-0.909812 0.86918,-1.397814 0.068,-0.06778 0.55601,0 0.66859,0 0.54164,0 2.64812,-0.2258 3.00866,0.133125 0.0501,0.0499 -0.11965,0.224095 -0.1337,0.266251 -0.1484,0.443215 -0.24297,3.497789 0,3.860628 0.0587,0.0876 1.46396,1.394358 1.47089,1.397812 1.15498,0.574935 0.93858,-3.340825 1.06975,-3.993751 0.52899,-2.633288 -0.64521,-3.933008 2.54064,-4.72594 0.52463,-0.130581 0.78779,-0.732189 1.27033,-0.732189 0.28191,0 0.35795,-3.376578 0.53151,-3.376578 0.31461,0 0.41293,3.373101 0.79419,3.562886 1.64457,0.81864 1.26869,0.998776 1.54922,1.278068 0.0991,0.09862 1.54624,0.283128 1.87206,0.931876 0.44042,0.876933 0.20058,6.809899 0.20058,8.320321 l -0.003,0.171561 c 0.025,0.306586 -0.0237,0.614532 -0.0237,0.917798 0,0.40952 1.05321,0.04177 1.15827,-0.376534 0.0633,-0.251699 0.15917,-0.50834 0.1891,-0.776604 0.0578,-0.517518 -0.0997,-2.442384 0.26002,-2.800475 0.0322,-0.03218 0.11078,0.01837 0.14184,0.02353 0.59954,0.09949 1.18693,0.09412 1.79651,0.09412 0.30697,0 2.01104,0.210012 2.24564,-0.02355 0.16686,-0.166132 -0.0217,-0.950051 -0.0473,-1.153135 -0.12142,-0.967095 -0.0472,-1.987279 -0.0472,-2.965212 l -0.23634,-0.470668 c 0.29506,-0.842307 0.004,-6.923529 0.56731,-7.483625 0.41702,-0.415167 0.61472,-0.400127 0.85098,-0.517733 0.93461,-0.465227 0.70916,-0.845132 0.70916,-1.835608 0,-0.729145 0.49599,-8.236693 0.70914,-8.236693 0.1788,0 0.75642,7.419899 0.75642,8.377895 0,0.205223 0.66324,1.648708 0.75642,1.741471 0.20129,0.200397 0.40878,0.3599 0.56731,0.517737 0.46358,0.46151 -0.17708,5.942387 0.28366,6.401087 0.25843,0.257278 0.63146,0.761459 0.99281,0.941337 0.41412,0.20614 0.77491,-0.2026 1.18191,0 0.58251,0.289956 1.22442,-0.386052 1.60741,0.376534 0.68766,1.36922 -0.0948,3.294103 0.56731,4.612547 0.0777,0.154482 0.33035,0.09412 0.47277,0.09412 1.95856,0 0.35457,-4.000676 1.04007,-5.365619 0.043,-0.08572 5.79884,-0.06317 5.95685,0.09412 0.84086,0.837146 -0.0927,4.331997 0.3782,4.800816 0.1521,0.151414 1.34777,0 1.60741,0 0.2725,0 0.96643,0.355734 1.13463,0.188267 0.85845,-0.854641 2.04943,-1.790901 2.45838,-3.012277 0.15426,-0.460692 -0.24487,-1.185114 -0.47275,-1.412003 -0.30515,-0.303779 0,-2.408575 0,-2.918144 0,-4.072786 -0.79535,-6.827465 3.025679,-8.095493 l 0,41.324679 -77.155178,0 0,-28.426189 c 0.497018,-0.02279 1.372646,-0.05888 1.573523,-0.06657 z"
       style="fill:#01131a;fill-opacity:1;stroke:#01131a;stroke-width:1.1870023px;stroke-linecap:butt;stroke-linejoin:miter;stroke-opacity:1"
       inkscape:connector-curvature="0" /><path
       transform="matrix(0.87610267,0,0,0.87610267,169.57099,-22.133302)"
       d="m -156.8853,58.559208 c 0,4.661721 -3.77907,8.440792 -8.4408,8.440792 -4.66172,0 -8.44079,-3.779071 -8.44079,-8.440792 0,-4.661721 3.77907,-8.440792 8.44079,-8.440792 4.66173,0 8.4408,3.779071 8.4408,8.440792 z"
       sodipodi:ry="8.4407921"
       sodipodi:rx="8.4407921"
       sodipodi:cy="58.559208"
       sodipodi:cx="-165.3261"
       id="path2825-5"
       style="fill:url(#radialGradient3059-8);fill-opacity:1;stroke:none"
       sodipodi:type="arc" /><g
       id="layer3"
       transform="matrix(1.1885062,0,0,1.0049429,-2.4082425,26.028462)"><path
         style="opacity:0.5;fill:url(#linearGradient3595);fill-opacity:1;stroke:none;display:inline;filter:url(#filter3963)"
         id="path3712"
         transform="matrix(0.59682539,0.41178643,-0.41178643,0.59682539,38.625076,-18.307404)"
         d="m 118.375,11.03125 c -0.52336,-0.06895 -1.05794,-0.0102 -1.5625,0.125 -1.00643,0.269671 -1.88554,0.918974 -2.4375,1.875 l -2.0625,3.5625 a 1.0491519,1.0491519 0 0 0 -0.84375,0.53125 l -9.5,16.46875 -36,62.34375 a 1.0491519,1.0491519 0 0 0 -0.09375,0.25 L 59.5,120.21875 A 1.0491519,1.0491519 0 0 0 61.25,121.25 L 78.875,103.71875 A 1.0491519,1.0491519 0 0 0 79.03125,103.5 l 36,-62.34375 9.5,-16.46875 a 1.0491519,1.0491519 0 0 0 0.0625,-0.90625 l 2.09375,-3.625 c 1.11127,-1.924777 0.4576,-4.419069 -1.46875,-5.53125 l -5.3125,-3.0625 c -0.47927,-0.276705 -1.00789,-0.462302 -1.53125,-0.53125 z"
         inkscape:connector-curvature="0" /><g
         style="display:inline"
         id="g3643"
         transform="matrix(-0.4683612,-0.55353988,0.55353988,-0.4683612,91.513242,158.74513)"><g
           id="g3537"><rect
             style="fill:url(#linearGradient3522);fill-opacity:1;stroke:#df453f;stroke-width:1.3791219;stroke-linecap:butt;stroke-linejoin:round;stroke-miterlimit:4;stroke-opacity:1;stroke-dasharray:none"
             id="rect3483"
             y="107.49392"
             x="136.91356"
             ry="3"
             rx="3"
             height="16"
             width="12.116117" /><path
             style="opacity:0.3;fill:#701300;fill-opacity:1;stroke:none;filter:url(#filter3495)"
             id="path3493"
             transform="matrix(1.8857143,0,0,1,-123.51329,-1.9445437)"
             d="m 141.24458,118.1889 a 1.5467962,3.9774759 0 1 1 -3.09359,0 1.5467962,3.9774759 0 1 1 3.09359,0 z"
             inkscape:connector-curvature="0" /><path
             style="opacity:0.8;fill:#ffffff;fill-opacity:1;fill-rule:evenodd;stroke:none;filter:url(#filter3509)"
             id="path3499"
             inkscape:connector-curvature="0"
             d="m 146.31251,113.125 c -0.85193,9.50672 -3.9375,8.3125 -6.5,8.9375 4.07634,0.0625 8.625,-0.0625 8.625,-0.0625 -2.4375,-0.5625 -1.8125,-2.375 -2.125,-8.875 z" /><rect
             style="opacity:0.2;fill:url(#linearGradient3524);fill-opacity:1;stroke:none"
             id="rect3525"
             y="115.96875"
             x="136.41188"
             height="1"
             width="12.119369" /></g><g
           id="g3311"
           transform="translate(23.73343,0)"><path
             style="fill:url(#linearGradient3526);fill-opacity:1;stroke:url(#linearGradient3528);stroke-width:1.3791219;stroke-linecap:butt;stroke-linejoin:round;stroke-miterlimit:4;stroke-opacity:1"
             id="rect2480"
             inkscape:connector-curvature="0"
             d="m 112.76657,24.500002 6.5,-23.9999996 6.5,23.9999996 0,71.999997 -13,0 0,-71.999997 z" /><path
             style="fill:url(#linearGradient3530);fill-opacity:1;fill-rule:evenodd;stroke:none"
             id="path3272"
             inkscape:connector-curvature="0"
             d="m 117.69336,8.0716529 3.14265,0.022097 -1.58237,-5.7913293" /><path
             style="fill:url(#linearGradient3532);fill-opacity:1;fill-rule:evenodd;stroke:none"
             id="path3274"
             inkscape:connector-curvature="0"
             d="M 117.73213,8.0901517 113.96457,22 c 0,0 -0.46779,1.653465 -0.698,2.60832 -0.19122,0.64228 1.95886,1.611283 3.0182,-1.60832 1.21534,4.513809 5.57589,3.437953 5.98831,0.01105 0.3425,1.701476 1.75396,2.949961 2.98863,1.521937 -0.23478,-0.908743 -0.43641,-1.521937 -0.43641,-1.521937 l -4.02168,-14.9208973 -3.07149,0 z" /><path
             style="opacity:0.3;fill:none;stroke:url(#linearGradient3534);stroke-width:1.37912166px;stroke-linecap:butt;stroke-linejoin:miter;stroke-opacity:1"
             id="path3294"
             inkscape:connector-curvature="0"
             d="m 122.37252,96.304856 0,-67.217294" /><path
             style="opacity:0.4;fill:none;stroke:url(#linearGradient3536);stroke-width:1.37912166px;stroke-linecap:butt;stroke-linejoin:miter;stroke-opacity:1"
             id="path3304"
             inkscape:connector-curvature="0"
             d="m 116.24752,96.304856 0,-67.217294" /><path
             style="opacity:0.4;fill:#ac4311;fill-opacity:1;fill-rule:evenodd;stroke:none;filter:url(#filter3382)"
             id="path3372"
             inkscape:connector-curvature="0"
             d="m 118.7044,5.9798798 -4.77297,17.8986412 1.98873,-0.839689 2.78424,-17.0589522 z" /><path
             style="opacity:0.15;fill:none;stroke:#4d2600;stroke-width:1.3791219px;stroke-linecap:butt;stroke-linejoin:miter;stroke-opacity:1"
             id="path3386"
             inkscape:connector-curvature="0"
             d="m 113.07908,24.624995 c 0,0 1.48667,1.76491 3.25,-1.53125 2,5.25 5.16858,2.087146 5.93749,-0.03125 1.375,3.4375 3.12501,1.4375 3.12501,1.4375" /><path
             style="opacity:0.8;fill:#ffffff;fill-opacity:1;fill-rule:evenodd;stroke:none;filter:url(#filter3390)"
             id="path3388"
             transform="matrix(1.122449,0,0,1.345,-41.70282,-4.7709353)"
             inkscape:connector-curvature="0"
             d="m 144.06251,8.9374939 -0.375,12.5000011 3.0625,-0.3125 -2.6875,-12.1875011 z" /></g><g
           id="g3620"><rect
             style="fill:url(#linearGradient3538);fill-opacity:1;stroke:url(#linearGradient3540);stroke-width:1.3791219;stroke-linecap:butt;stroke-linejoin:round;stroke-miterlimit:4;stroke-opacity:1;stroke-dasharray:none"
             id="rect3333"
             y="96.5"
             x="136.5"
             height="19"
             width="13" /><rect
             style="opacity:0.4;fill:url(#linearGradient3542);fill-opacity:1;stroke:none"
             id="rect3337"
             y="100"
             x="137"
             height="1"
             width="12" /><rect
             style="opacity:0.6;fill:url(#linearGradient3544);fill-opacity:1;stroke:none"
             id="rect3351"
             y="101"
             x="137"
             height="1"
             width="12" /><rect
             style="opacity:0.4;fill:url(#linearGradient3546);fill-opacity:1;stroke:none"
             id="rect3369"
             y="102"
             x="137"
             height="1"
             width="12" /><rect
             style="opacity:0.6;fill:url(#linearGradient3548);fill-opacity:1;stroke:none"
             id="rect3371"
             y="103"
             x="137"
             height="1"
             width="12" /><rect
             style="opacity:0.4;fill:url(#linearGradient3550);fill-opacity:1;stroke:none"
             id="rect3379"
             y="108"
             x="137"
             height="1"
             width="12" /><rect
             style="opacity:0.6;fill:url(#linearGradient3552);fill-opacity:1;stroke:none"
             id="rect3381"
             y="109"
             x="137"
             height="1"
             width="12" /><rect
             style="opacity:0.4;fill:url(#linearGradient3554);fill-opacity:1;stroke:none"
             id="rect3385"
             y="110"
             x="137"
             height="1"
             width="12" /><rect
             style="opacity:0.6;fill:url(#linearGradient3556);fill-opacity:1;stroke:none"
             id="rect3387"
             y="111"
             x="137"
             height="1"
             width="12" /><rect
             style="opacity:0.3;fill:url(#linearGradient3558);fill-opacity:1;stroke:none"
             id="rect3437"
             y="104"
             x="137"
             height="4"
             width="12" /><path
             style="opacity:0.6;fill:#000000;fill-opacity:1;stroke:none;filter:url(#filter3451)"
             id="path3449"
             transform="matrix(1.2553848,0,0,1,-35.75387,0)"
             d="m 140.00001,106.07969 a 1.10128,8.3968973 0 1 1 -2.20256,0 1.10128,8.3968973 0 1 1 2.20256,0 z"
             inkscape:connector-curvature="0" /><path
             style="opacity:0.8;fill:#ffffff;fill-opacity:1;stroke:none;filter:url(#filter3457)"
             id="path3455"
             d="m 147.34339,106.03549 a 1.193245,8.0875489 0 1 1 -2.38649,0 1.193245,8.0875489 0 1 1 2.38649,0 z"
             inkscape:connector-curvature="0" /></g></g></g></g></svg>